# xmcd
#
# Track frame offsets:
#	150
#	17979
#	37468
#	52897
#	73436
#	95505
#	114414
#	135623
#	154862
#	177311
#	188950
#	195559
#	211428
#	230517
#	244966
#	263125
#	279104
#
# Disc length: 3983 seconds
#
# Revision: 0
# Processed by: cddbd v1.5.2PL0 Copyright (c) Steve Scherf et al.
# Submitted via: audiograbber 1.83.01
#
DISCID=010f8d11
DTITLE=Sarah Connor - Unbelivable
DYEAR=2002
DGENRE=Soul
TTITLE0=One night Stand (of Wolves and Sheep
TTITLE1=He´s Unbelivable
TTITLE2=I wanna Touch u there
TTITLE3=The loving Promission
TTITLE4=Where Did u sleep last Night
TTITLE5=Bounce
TTITLE6=Skin on Skin
TTITLE7=Wait ´Til u hear from me
TTITLE8=1+1=2
TTITLE9=Put your Eyez on me Teil 1
TTITLE10=Put your Eyez on me Teil 2
TTITLE11=That´s the Way I am
TTITLE12=Beautiful
TTITLE13=That Girl
TTITLE14=Sweet Thang
TTITLE15=Make my Day
TTITLE16=Teach U Tonite
EXTD=
EXTT0=
EXTT1=
EXTT2=
EXTT3=
EXTT4=
EXTT5=
EXTT6=
EXTT7=
EXTT8=
EXTT9=
EXTT10=
EXTT11=
EXTT12=
EXTT13=
EXTT14=
EXTT15=
EXTT16=
PLAYORDER=
